<mxfile host="app.diagrams.net" modified="2021-11-12T11:51:27.068Z" agent="5.0 (Windows)" etag="EH7gu7Ah6adBLphqM2mw" version="15.7.3" type="github">
  <diagram id="e6vr0kPbjMTlubADFca8" name="Page-1">
    <mxGraphModel dx="3197" dy="1253" grid="1" gridSize="10" guides="1" tooltips="1" connect="1" arrows="1" fold="1" page="1" pageScale="1" pageWidth="827" pageHeight="1169" math="0" shadow="0">
      <root>
        <mxCell id="0" />
        <mxCell id="1" parent="0" />
        <mxCell id="ce3dV2bPjubF25PgB8vf-2" value="&lt;div&gt;Docker Host Environament&lt;/div&gt;" style="rounded=1;whiteSpace=wrap;html=1;dashed=1;strokeWidth=3;labelPosition=center;verticalLabelPosition=bottom;align=center;verticalAlign=top;" vertex="1" parent="1">
          <mxGeometry x="400" y="94" width="1030" height="526" as="geometry" />
        </mxCell>
        <mxCell id="ce3dV2bPjubF25PgB8vf-31" style="edgeStyle=none;rounded=0;orthogonalLoop=1;jettySize=auto;html=1;exitX=0.5;exitY=0;exitDx=0;exitDy=0;exitPerimeter=0;entryX=0.5;entryY=1;entryDx=0;entryDy=0;entryPerimeter=0;strokeColor=#FF8000;strokeWidth=3;" edge="1" parent="1" source="ce3dV2bPjubF25PgB8vf-13" target="ce3dV2bPjubF25PgB8vf-4">
          <mxGeometry relative="1" as="geometry" />
        </mxCell>
        <mxCell id="ce3dV2bPjubF25PgB8vf-61" style="edgeStyle=none;rounded=0;orthogonalLoop=1;jettySize=auto;html=1;exitX=0.5;exitY=1;exitDx=0;exitDy=0;exitPerimeter=0;entryX=0.625;entryY=0.2;entryDx=0;entryDy=0;entryPerimeter=0;startArrow=none;startFill=0;strokeColor=#FF8000;strokeWidth=3;" edge="1" parent="1" source="ce3dV2bPjubF25PgB8vf-13" target="ce3dV2bPjubF25PgB8vf-56">
          <mxGeometry relative="1" as="geometry" />
        </mxCell>
        <mxCell id="ce3dV2bPjubF25PgB8vf-37" style="edgeStyle=none;rounded=0;orthogonalLoop=1;jettySize=auto;html=1;exitX=0.5;exitY=1;exitDx=0;exitDy=0;exitPerimeter=0;entryX=0.88;entryY=0.25;entryDx=0;entryDy=0;entryPerimeter=0;startArrow=none;startFill=0;strokeColor=#FF8000;strokeWidth=3;" edge="1" parent="1" source="ce3dV2bPjubF25PgB8vf-13" target="ce3dV2bPjubF25PgB8vf-6">
          <mxGeometry relative="1" as="geometry" />
        </mxCell>
        <mxCell id="ce3dV2bPjubF25PgB8vf-39" style="edgeStyle=none;rounded=0;orthogonalLoop=1;jettySize=auto;html=1;exitX=0.5;exitY=1;exitDx=0;exitDy=0;exitPerimeter=0;entryX=0.4;entryY=0.1;entryDx=0;entryDy=0;entryPerimeter=0;startArrow=none;startFill=0;strokeColor=#FF8000;strokeWidth=3;" edge="1" parent="1" source="ce3dV2bPjubF25PgB8vf-3" target="ce3dV2bPjubF25PgB8vf-6">
          <mxGeometry relative="1" as="geometry" />
        </mxCell>
        <mxCell id="ce3dV2bPjubF25PgB8vf-60" style="edgeStyle=none;rounded=0;orthogonalLoop=1;jettySize=auto;html=1;exitX=0.5;exitY=1;exitDx=0;exitDy=0;exitPerimeter=0;entryX=0.25;entryY=0.25;entryDx=0;entryDy=0;entryPerimeter=0;startArrow=none;startFill=0;strokeColor=#FF8000;strokeWidth=3;" edge="1" parent="1" source="ce3dV2bPjubF25PgB8vf-3" target="ce3dV2bPjubF25PgB8vf-56">
          <mxGeometry relative="1" as="geometry" />
        </mxCell>
        <mxCell id="ce3dV2bPjubF25PgB8vf-1" value="" style="sketch=0;aspect=fixed;html=1;points=[];align=center;image;fontSize=12;image=img/lib/mscae/Docker.svg;" vertex="1" parent="1">
          <mxGeometry x="430" y="120" width="50" height="41" as="geometry" />
        </mxCell>
        <mxCell id="ce3dV2bPjubF25PgB8vf-6" value="File Storage" style="ellipse;shape=cloud;whiteSpace=wrap;html=1;strokeWidth=1;labelPosition=center;verticalLabelPosition=bottom;align=center;verticalAlign=top;" vertex="1" parent="1">
          <mxGeometry x="40" y="745" width="850" height="511" as="geometry" />
        </mxCell>
        <mxCell id="ce3dV2bPjubF25PgB8vf-8" value="" style="group" vertex="1" connectable="0" parent="1">
          <mxGeometry x="1250" y="190" width="118" height="100" as="geometry" />
        </mxCell>
        <mxCell id="ce3dV2bPjubF25PgB8vf-4" value="&lt;div style=&quot;font-size: 16px;&quot;&gt;PostgreSQL&lt;/div&gt;" style="verticalLabelPosition=bottom;verticalAlign=top;html=1;shape=mxgraph.infographic.shadedCube;isoAngle=15;fillColor=#10739E;strokeColor=none;dashed=1;shadow=1;fontSize=16;" vertex="1" parent="ce3dV2bPjubF25PgB8vf-8">
          <mxGeometry width="100" height="100" as="geometry" />
        </mxCell>
        <mxCell id="ce3dV2bPjubF25PgB8vf-7" value="" style="sketch=0;aspect=fixed;html=1;points=[];align=center;image;fontSize=12;image=img/lib/mscae/Azure_Database_for_PostgreSQL_servers.svg;strokeWidth=1;" vertex="1" parent="ce3dV2bPjubF25PgB8vf-8">
          <mxGeometry x="80" y="50" width="38" height="50" as="geometry" />
        </mxCell>
        <mxCell id="ce3dV2bPjubF25PgB8vf-10" value="" style="group;shadow=1;" vertex="1" connectable="0" parent="1">
          <mxGeometry x="851" y="190" width="128" height="100" as="geometry" />
        </mxCell>
        <mxCell id="ce3dV2bPjubF25PgB8vf-5" value="&lt;div style=&quot;font-size: 16px;&quot;&gt;ClamAV&lt;/div&gt;" style="verticalLabelPosition=bottom;verticalAlign=top;html=1;shape=mxgraph.infographic.shadedCube;isoAngle=15;fillColor=#10739E;strokeColor=none;dashed=1;shadow=1;fontSize=16;" vertex="1" parent="ce3dV2bPjubF25PgB8vf-10">
          <mxGeometry width="100" height="100" as="geometry" />
        </mxCell>
        <mxCell id="ce3dV2bPjubF25PgB8vf-9" value="" style="shape=image;html=1;verticalAlign=top;verticalLabelPosition=bottom;labelBackgroundColor=#ffffff;imageAspect=0;aspect=fixed;image=https://cdn3.iconfinder.com/data/icons/softwaredemo/PNG/128x128/Shield_Red.png;strokeWidth=1;" vertex="1" parent="ce3dV2bPjubF25PgB8vf-10">
          <mxGeometry x="70" y="42" width="58" height="58" as="geometry" />
        </mxCell>
        <mxCell id="ce3dV2bPjubF25PgB8vf-12" value="" style="group" vertex="1" connectable="0" parent="1">
          <mxGeometry x="460" y="450" width="120" height="100" as="geometry" />
        </mxCell>
        <mxCell id="ce3dV2bPjubF25PgB8vf-3" value="&lt;div style=&quot;font-size: 16px;&quot;&gt;API + Angular client&lt;/div&gt;" style="verticalLabelPosition=bottom;verticalAlign=top;html=1;shape=mxgraph.infographic.shadedCube;isoAngle=15;fillColor=#10739E;strokeColor=none;dashed=1;shadow=1;fontSize=16;" vertex="1" parent="ce3dV2bPjubF25PgB8vf-12">
          <mxGeometry width="100" height="100" as="geometry" />
        </mxCell>
        <mxCell id="ce3dV2bPjubF25PgB8vf-11" value="" style="sketch=0;html=1;dashed=0;whitespace=wrap;fillColor=#2875E2;strokeColor=#ffffff;points=[[0.005,0.63,0],[0.1,0.2,0],[0.9,0.2,0],[0.5,0,0],[0.995,0.63,0],[0.72,0.99,0],[0.5,1,0],[0.28,0.99,0]];shape=mxgraph.kubernetes.icon;prIcon=api" vertex="1" parent="ce3dV2bPjubF25PgB8vf-12">
          <mxGeometry x="70" y="52" width="50" height="48" as="geometry" />
        </mxCell>
        <mxCell id="ce3dV2bPjubF25PgB8vf-15" value="" style="group" vertex="1" connectable="0" parent="1">
          <mxGeometry x="1238" y="450" width="124" height="100" as="geometry" />
        </mxCell>
        <mxCell id="ce3dV2bPjubF25PgB8vf-13" value="&lt;div style=&quot;font-size: 16px;&quot;&gt;Job executor&lt;/div&gt;" style="verticalLabelPosition=bottom;verticalAlign=top;html=1;shape=mxgraph.infographic.shadedCube;isoAngle=15;fillColor=#10739E;strokeColor=none;shadow=1;fontSize=16;" vertex="1" parent="ce3dV2bPjubF25PgB8vf-15">
          <mxGeometry width="100" height="100" as="geometry" />
        </mxCell>
        <mxCell id="ce3dV2bPjubF25PgB8vf-14" value="" style="sketch=0;aspect=fixed;html=1;points=[];align=center;image;fontSize=12;image=img/lib/mscae/SchedulerJobCollection.svg;strokeWidth=1;" vertex="1" parent="ce3dV2bPjubF25PgB8vf-15">
          <mxGeometry x="74" y="57" width="50" height="43" as="geometry" />
        </mxCell>
        <mxCell id="ce3dV2bPjubF25PgB8vf-18" value="" style="group;fontSize=12;" vertex="1" connectable="0" parent="1">
          <mxGeometry x="459" y="190" width="122" height="100" as="geometry" />
        </mxCell>
        <mxCell id="ce3dV2bPjubF25PgB8vf-16" value="Redis cache" style="verticalLabelPosition=bottom;verticalAlign=top;html=1;shape=mxgraph.infographic.shadedCube;isoAngle=15;fillColor=#10739E;strokeColor=none;shadow=1;fontSize=16;" vertex="1" parent="ce3dV2bPjubF25PgB8vf-18">
          <mxGeometry width="100" height="100" as="geometry" />
        </mxCell>
        <mxCell id="ce3dV2bPjubF25PgB8vf-17" value="" style="sketch=0;aspect=fixed;html=1;points=[];align=center;image;fontSize=12;image=img/lib/mscae/Cache_Redis_Product.svg;strokeWidth=1;" vertex="1" parent="ce3dV2bPjubF25PgB8vf-18">
          <mxGeometry x="72" y="58" width="50" height="42" as="geometry" />
        </mxCell>
        <mxCell id="ce3dV2bPjubF25PgB8vf-28" style="edgeStyle=none;rounded=0;orthogonalLoop=1;jettySize=auto;html=1;exitX=0.5;exitY=0;exitDx=0;exitDy=0;exitPerimeter=0;strokeColor=#FF8000;strokeWidth=3;" edge="1" parent="1" source="ce3dV2bPjubF25PgB8vf-3" target="ce3dV2bPjubF25PgB8vf-16">
          <mxGeometry relative="1" as="geometry" />
        </mxCell>
        <mxCell id="ce3dV2bPjubF25PgB8vf-27" style="rounded=0;orthogonalLoop=1;jettySize=auto;html=1;exitX=0;exitY=0;exitDx=100;exitDy=24.0078759080116;exitPerimeter=0;entryX=0;entryY=0;entryDx=0;entryDy=75.9921240919884;entryPerimeter=0;strokeColor=#FF8000;strokeWidth=3;" edge="1" parent="1" source="ce3dV2bPjubF25PgB8vf-3" target="ce3dV2bPjubF25PgB8vf-5">
          <mxGeometry relative="1" as="geometry" />
        </mxCell>
        <mxCell id="ce3dV2bPjubF25PgB8vf-29" style="edgeStyle=none;rounded=0;orthogonalLoop=1;jettySize=auto;html=1;exitX=0;exitY=0;exitDx=100;exitDy=37.0039379540058;exitPerimeter=0;entryX=0;entryY=0;entryDx=0;entryDy=75.9921240919884;entryPerimeter=0;strokeColor=#FF8000;strokeWidth=3;" edge="1" parent="1" source="ce3dV2bPjubF25PgB8vf-3" target="ce3dV2bPjubF25PgB8vf-4">
          <mxGeometry relative="1" as="geometry" />
        </mxCell>
        <mxCell id="ce3dV2bPjubF25PgB8vf-33" style="edgeStyle=none;rounded=0;orthogonalLoop=1;jettySize=auto;html=1;exitX=0.5;exitY=0;exitDx=0;exitDy=0;entryX=0.002;entryY=0.717;entryDx=0;entryDy=0;entryPerimeter=0;startArrow=classic;startFill=1;strokeColor=#FF8000;strokeWidth=3;" edge="1" parent="1" source="ce3dV2bPjubF25PgB8vf-32" target="ce3dV2bPjubF25PgB8vf-19">
          <mxGeometry relative="1" as="geometry" />
        </mxCell>
        <mxCell id="ce3dV2bPjubF25PgB8vf-30" style="edgeStyle=none;rounded=0;orthogonalLoop=1;jettySize=auto;html=1;exitX=0;exitY=0;exitDx=0;exitDy=24.0078759080116;exitPerimeter=0;strokeColor=#FF8000;strokeWidth=3;" edge="1" parent="1" source="ce3dV2bPjubF25PgB8vf-13">
          <mxGeometry relative="1" as="geometry">
            <mxPoint x="580" y="280" as="targetPoint" />
          </mxGeometry>
        </mxCell>
        <mxCell id="ce3dV2bPjubF25PgB8vf-34" style="edgeStyle=none;rounded=0;orthogonalLoop=1;jettySize=auto;html=1;exitX=1;exitY=0.5;exitDx=0;exitDy=0;entryX=0;entryY=0;entryDx=0;entryDy=50;entryPerimeter=0;strokeColor=#FF8000;startArrow=classic;startFill=1;strokeWidth=3;" edge="1" parent="1" source="ce3dV2bPjubF25PgB8vf-32" target="ce3dV2bPjubF25PgB8vf-3">
          <mxGeometry relative="1" as="geometry" />
        </mxCell>
        <mxCell id="ce3dV2bPjubF25PgB8vf-32" value="User client" style="aspect=fixed;perimeter=ellipsePerimeter;html=1;align=center;shadow=0;dashed=0;spacingTop=3;image;image=img/lib/active_directory/laptop_client.svg;strokeWidth=1;fontSize=16;" vertex="1" parent="1">
          <mxGeometry x="-84" y="427.5" width="130.5" height="145" as="geometry" />
        </mxCell>
        <mxCell id="ce3dV2bPjubF25PgB8vf-35" style="edgeStyle=none;rounded=0;orthogonalLoop=1;jettySize=auto;html=1;exitX=0;exitY=0;exitDx=0;exitDy=24.0078759080116;exitPerimeter=0;entryX=1.025;entryY=0.951;entryDx=0;entryDy=0;entryPerimeter=0;startArrow=classic;startFill=1;strokeColor=#FF8000;strokeWidth=3;" edge="1" parent="1" source="ce3dV2bPjubF25PgB8vf-3" target="ce3dV2bPjubF25PgB8vf-19">
          <mxGeometry relative="1" as="geometry" />
        </mxCell>
        <mxCell id="ce3dV2bPjubF25PgB8vf-42" style="edgeStyle=none;rounded=0;orthogonalLoop=1;jettySize=auto;html=1;exitX=0;exitY=0;exitDx=0;exitDy=24.0078759080116;exitPerimeter=0;entryX=1;entryY=1;entryDx=0;entryDy=0;startArrow=none;startFill=0;strokeColor=#FF8000;strokeWidth=3;" edge="1" parent="1" source="ce3dV2bPjubF25PgB8vf-13" target="ce3dV2bPjubF25PgB8vf-9">
          <mxGeometry relative="1" as="geometry" />
        </mxCell>
        <mxCell id="ce3dV2bPjubF25PgB8vf-43" value="&lt;div style=&quot;font-size: 16px;&quot;&gt;File system provider&lt;/div&gt;&lt;div style=&quot;font-size: 16px;&quot;&gt;&lt;br style=&quot;font-size: 16px;&quot;&gt;&lt;/div&gt;" style="sketch=0;outlineConnect=0;fontColor=#232F3E;gradientColor=none;fillColor=#3F8624;strokeColor=none;dashed=0;verticalLabelPosition=bottom;verticalAlign=top;align=center;html=1;fontSize=16;fontStyle=0;aspect=fixed;pointerEvents=1;shape=mxgraph.aws4.file_system;shadow=1;" vertex="1" parent="1">
          <mxGeometry x="217" y="906" width="78" height="73" as="geometry" />
        </mxCell>
        <mxCell id="ce3dV2bPjubF25PgB8vf-44" value="&lt;div style=&quot;font-size: 16px;&quot;&gt;SharePoint provider&lt;/div&gt;" style="sketch=0;outlineConnect=0;fontColor=#232F3E;gradientColor=none;fillColor=#3F8624;strokeColor=none;dashed=0;verticalLabelPosition=bottom;verticalAlign=top;align=center;html=1;fontSize=16;fontStyle=0;aspect=fixed;pointerEvents=1;shape=mxgraph.aws4.file_system;shadow=1;" vertex="1" parent="1">
          <mxGeometry x="422" y="906" width="78" height="73" as="geometry" />
        </mxCell>
        <mxCell id="ce3dV2bPjubF25PgB8vf-49" value="&lt;div style=&quot;font-size: 16px;&quot;&gt;Azure Blob Storage provder&lt;/div&gt;" style="sketch=0;outlineConnect=0;fontColor=#232F3E;gradientColor=none;fillColor=#3F8624;strokeColor=none;dashed=0;verticalLabelPosition=bottom;verticalAlign=top;align=center;html=1;fontSize=16;fontStyle=0;aspect=fixed;pointerEvents=1;shape=mxgraph.aws4.file_system;shadow=1;" vertex="1" parent="1">
          <mxGeometry x="627" y="906" width="78" height="73" as="geometry" />
        </mxCell>
        <mxCell id="ce3dV2bPjubF25PgB8vf-52" value="&lt;div style=&quot;font-size: 16px;&quot;&gt;File Service provider&lt;/div&gt;&lt;div style=&quot;font-size: 16px;&quot;&gt;&lt;br style=&quot;font-size: 16px;&quot;&gt;&lt;/div&gt;" style="sketch=0;outlineConnect=0;fontColor=#232F3E;gradientColor=none;fillColor=#3F8624;strokeColor=none;dashed=0;verticalLabelPosition=bottom;verticalAlign=top;align=center;html=1;fontSize=16;fontStyle=0;aspect=fixed;pointerEvents=1;shape=mxgraph.aws4.file_system;shadow=1;" vertex="1" parent="1">
          <mxGeometry x="217" y="1036" width="78" height="73" as="geometry" />
        </mxCell>
        <mxCell id="ce3dV2bPjubF25PgB8vf-53" value="&lt;div style=&quot;font-size: 16px;&quot;&gt;DB provider&lt;/div&gt;" style="sketch=0;outlineConnect=0;fontColor=#232F3E;gradientColor=none;fillColor=#3F8624;strokeColor=none;dashed=0;verticalLabelPosition=bottom;verticalAlign=top;align=center;html=1;fontSize=16;fontStyle=0;aspect=fixed;pointerEvents=1;shape=mxgraph.aws4.file_system;shadow=1;" vertex="1" parent="1">
          <mxGeometry x="420" y="1036" width="78" height="73" as="geometry" />
        </mxCell>
        <mxCell id="ce3dV2bPjubF25PgB8vf-56" value="Mail sender" style="ellipse;shape=cloud;whiteSpace=wrap;html=1;strokeWidth=1;labelPosition=center;verticalLabelPosition=bottom;align=center;verticalAlign=top;" vertex="1" parent="1">
          <mxGeometry x="851" y="745" width="830" height="511" as="geometry" />
        </mxCell>
        <mxCell id="ce3dV2bPjubF25PgB8vf-57" value="SMTP server" style="sketch=0;points=[[0,0,0],[0.25,0,0],[0.5,0,0],[0.75,0,0],[1,0,0],[0,1,0],[0.25,1,0],[0.5,1,0],[0.75,1,0],[1,1,0],[0,0.25,0],[0,0.5,0],[0,0.75,0],[1,0.25,0],[1,0.5,0],[1,0.75,0]];outlineConnect=0;fontColor=#232F3E;gradientColor=#4D72F3;gradientDirection=north;fillColor=#3334B9;strokeColor=#ffffff;dashed=0;verticalLabelPosition=bottom;verticalAlign=top;align=center;html=1;fontSize=16;fontStyle=0;aspect=fixed;shape=mxgraph.aws4.resourceIcon;resIcon=mxgraph.aws4.simple_email_service;shadow=1;" vertex="1" parent="1">
          <mxGeometry x="1063" y="965" width="78" height="78" as="geometry" />
        </mxCell>
        <mxCell id="ce3dV2bPjubF25PgB8vf-58" value="&lt;div style=&quot;font-size: 16px;&quot;&gt;Mailgun&lt;/div&gt;" style="sketch=0;points=[[0,0,0],[0.25,0,0],[0.5,0,0],[0.75,0,0],[1,0,0],[0,1,0],[0.25,1,0],[0.5,1,0],[0.75,1,0],[1,1,0],[0,0.25,0],[0,0.5,0],[0,0.75,0],[1,0.25,0],[1,0.5,0],[1,0.75,0]];outlineConnect=0;fontColor=#232F3E;gradientColor=#4D72F3;gradientDirection=north;fillColor=#3334B9;strokeColor=#ffffff;dashed=0;verticalLabelPosition=bottom;verticalAlign=top;align=center;html=1;fontSize=16;fontStyle=0;aspect=fixed;shape=mxgraph.aws4.resourceIcon;resIcon=mxgraph.aws4.simple_email_service;shadow=1;" vertex="1" parent="1">
          <mxGeometry x="1413" y="965" width="78" height="78" as="geometry" />
        </mxCell>
        <mxCell id="ce3dV2bPjubF25PgB8vf-59" value="&lt;div style=&quot;font-size: 16px;&quot;&gt;SendGrid&lt;/div&gt;" style="sketch=0;points=[[0,0,0],[0.25,0,0],[0.5,0,0],[0.75,0,0],[1,0,0],[0,1,0],[0.25,1,0],[0.5,1,0],[0.75,1,0],[1,1,0],[0,0.25,0],[0,0.5,0],[0,0.75,0],[1,0.25,0],[1,0.5,0],[1,0.75,0]];outlineConnect=0;fontColor=#232F3E;gradientColor=#4D72F3;gradientDirection=north;fillColor=#3334B9;strokeColor=#ffffff;dashed=0;verticalLabelPosition=bottom;verticalAlign=top;align=center;html=1;fontSize=16;fontStyle=0;aspect=fixed;shape=mxgraph.aws4.resourceIcon;resIcon=mxgraph.aws4.simple_email_service;shadow=1;" vertex="1" parent="1">
          <mxGeometry x="1238" y="965" width="78" height="78" as="geometry" />
        </mxCell>
        <mxCell id="ce3dV2bPjubF25PgB8vf-63" value="" style="verticalLabelPosition=bottom;html=1;verticalAlign=top;align=center;strokeColor=none;fillColor=#FF8000;shape=mxgraph.azure.user;shadow=1;fontSize=16;" vertex="1" parent="1">
          <mxGeometry x="14" y="510" width="47.5" height="50" as="geometry" />
        </mxCell>
        <mxCell id="ce3dV2bPjubF25PgB8vf-19" value="&lt;span style=&quot;background-color: transparent&quot;&gt;Azure AD&lt;/span&gt;" style="aspect=fixed;html=1;points=[];align=center;image;fontSize=16;image=img/lib/azure2/identity/Azure_AD_Domain_Services.svg;strokeWidth=1;" vertex="1" parent="1">
          <mxGeometry x="176" y="170" width="120.31" height="110" as="geometry" />
        </mxCell>
      </root>
    </mxGraphModel>
  </diagram>
</mxfile>
